# xmcd
#
# Track frame offsets:
#	182
#	20635
#	48305
#	67582
#	79805
#	106720
#	122262
#	138477
#	154912
#
# Disc length: 2423 seconds
#
# Revision: 1
# Processed by: cddbd v1.5.2PL0 Copyright (c) Steve Scherf et al.
# Submitted via: audiograbber 1.83.01
#
DISCID=66097509
DTITLE=Bob Dylan and Friends - Live in N.Y. 92
DYEAR=1992
DGENRE=Rock
TTITLE0=Like a Rolling Stone
TTITLE1=Blown' in the Wind
TTITLE2=Foot of Pride
TTITLE3=The Time they are 
TTITLE4=Don't Thing Twice
TTITLE5=Forever Young
TTITLE6=Mr. Tambourine Man
TTITLE7=Song to Woody
TTITLE8=It's Alright ma, I'm only Bleeding
EXTD=
EXTT0=
EXTT1=
EXTT2=
EXTT3=
EXTT4=
EXTT5=
EXTT6=
EXTT7=
EXTT8=
PLAYORDER=
